<?xml version="1.0" standalone="no"?>
<!DOCTYPE svg PUBLIC "-//W3C//DTD SVG 20010904//EN"
 "http://www.w3.org/TR/2001/REC-SVG-20010904/DTD/svg10.dtd">
<svg version="1.0" xmlns="http://www.w3.org/2000/svg"
 width="512.000000pt" height="512.000000pt" viewBox="0 0 512.000000 512.000000"
 preserveAspectRatio="xMidYMid meet">
<metadata>
Created by potrace 1.11, written by Peter Selinger 2001-2013
</metadata>
<g transform="translate(0.000000,512.000000) scale(0.100000,-0.100000)"
fill="#000000" stroke="none">
<path d="M1986 4474 c-331 -61 -560 -218 -677 -464 -46 -99 -62 -186 -63 -345
0 -126 3 -162 22 -228 37 -131 98 -230 215 -354 133 -140 265 -229 567 -385
287 -147 424 -234 534 -338 113 -107 151 -187 151 -325 0 -119 -7 -146 -61
-231 -119 -188 -345 -270 -664 -240 -202 19 -368 59 -561 137 -56 22 -103 39
-104 37 -1 -2 -34 -82 -73 -178 -61 -149 -69 -177 -56 -186 42 -33 387 -152
485 -168 19 -3 68 -12 109 -20 135 -26 193 -31 370 -31 192 0 255 6 375 36
443 111 707 411 719 818 10 309 -128 559 -434 792 -84 64 -240 161 -334 209
-71 36 -91 83 -91 215 0 90 3 106 29 159 75 153 210 227 426 231 137 3 287
-12 420 -40 14 -3 34 -7 45 -9 11 -2 60 -14 109 -26 48 -11 90 -20 91 -18 2 2
18 39 35 83 17 44 38 94 45 110 40 87 63 155 54 161 -5 3 -22 9 -38 14 -27 7
-29 6 -46 -44 -10 -28 -21 -55 -25 -61 -3 -5 -24 -54 -45 -107 -21 -54 -42
-98 -46 -98 -5 0 -52 11 -106 25 -90 22 -209 45 -323 60 -90 13 -295 12 -356
0 -126 -27 -230 -97 -287 -196 -54 -95 -60 -242 -13 -346 15 -30 26 -57 26
-60 0 -3 -15 4 -32 15 -18 11 -64 36 -103 57 -38 21 -81 45 -95 55 -14 9 -32
19 -40 22 -19 7 -171 120 -218 161 -127 115 -182 266 -147 412 34 144 133 240
295 285 65 18 94 20 225 16 156 -5 178 -8 310 -31 116 -21 119 -22 201 -45 76
-20 94 -20 94 4 0 7 6 26 14 42 19 38 116 279 116 287 0 13 -286 89 -415 111
-139 23 -177 26 -370 31 -129 2 -202 0 -259 -11z"/>
<path d="M3160 4014 c-30 -74 -57 -137 -60 -139 -3 -2 -37 5 -75 16 -111 31
-226 53 -330 64 -33 4 -73 9 -90 11 -45 6 -236 5 -270 -1 -171 -32 -287 -121
-335 -259 -29 -85 -23 -222 12 -292 29 -56 80 -121 127 -159 l30 -26 -25 45
c-56 100 -60 249 -9 352 52 107 166 189 295 214 53 10 260 14 310 6 14 -2 52
-7 85 -11 32 -4 68 -9 80 -11 11 -2 45 -9 75 -14 30 -6 97 -21 148 -34 l93
-24 10 26 c5 15 14 36 19 47 5 11 34 80 64 152 l53 133 -64 20 c-36 11 -70 20
-77 20 -6 0 -36 -61 -66 -136z"/>
<path d="M3305 2450 c5 -8 25 -40 45 -70 102 -152 142 -301 135 -507 -11 -304
-174 -556 -455 -702 -78 -41 -220 -94 -280 -105 -19 -3 -46 -8 -60 -11 -131
-27 -498 -27 -600 0 -8 2 -31 6 -50 9 -48 7 -285 62 -285 66 0 1 -7 3 -15 5
-14 3 -138 46 -170 59 -11 4 -19 -3 -27 -23 -11 -29 -10 -30 47 -55 187 -84
453 -160 640 -182 30 -3 78 -10 105 -14 67 -10 294 -10 375 1 99 14 125 18
141 23 8 3 26 7 41 10 15 2 62 17 105 31 206 71 378 199 477 354 97 151 129
264 130 456 2 213 -47 356 -177 523 -49 65 -138 159 -122 132z"/>
<path d="M3699 2120 c68 -95 120 -204 137 -290 18 -89 22 -129 22 -211 0 -226
-75 -420 -220 -569 -198 -205 -498 -313 -868 -314 -85 0 -223 10 -270 19 -13
2 -42 7 -65 11 -152 22 -346 74 -482 129 -97 39 -103 40 -103 22 0 -14 51 -39
193 -93 131 -50 332 -102 463 -120 27 -3 52 -8 55 -10 14 -8 188 -18 294 -17
571 7 972 286 1054 733 14 76 7 281 -13 363 -30 124 -104 259 -195 357 l-42
45 40 -55z"/>
</g>
</svg>
