<svg width="409" height="110" viewBox="0 0 409 110" fill="none" xmlns="http://www.w3.org/2000/svg">
<path d="M122.203 55.358C122.203 59.4544 121.504 63.2583 120.108 66.7695C118.785 70.2807 116.948 73.3164 114.596 75.8767C112.318 78.4369 109.672 80.4852 106.658 82.0213C103.719 83.4843 100.632 84.2158 97.3981 84.2158C95.6342 84.2158 93.8336 84.0695 91.9962 83.7769C90.2324 83.5575 88.0643 83.0454 85.4919 82.2408C86.5209 79.9731 87.7335 78.1443 89.1299 76.7545C90.5263 75.3646 92.2902 74.6331 94.4216 74.56C98.7577 74.4137 102.065 72.6946 104.343 69.4029C106.695 66.038 107.871 61.3564 107.871 55.358C107.871 52.5783 107.577 49.9815 106.989 47.5675C106.475 45.0804 105.666 42.9591 104.564 41.2035C103.461 39.3747 102.102 37.9483 100.485 36.9242C98.868 35.8269 97.0306 35.2783 94.9728 35.2783C90.4161 35.2783 85.9329 37.9117 81.5232 43.1785V109.782H68.1839V46.58C68.1839 42.7762 68.0737 39.3382 67.8532 36.2658C67.7062 33.1204 67.2652 29.9018 66.5303 26.61H76.6726C77.628 27.2683 78.3997 28.073 78.9876 29.024C79.5756 29.9749 80.1268 31.0722 80.6413 32.3157L80.8618 34.4005L82.2949 32.206C85.0142 29.6457 87.6233 27.8536 90.1221 26.8294C92.6944 25.8053 95.1198 25.2933 97.3981 25.2933C101.293 25.2933 104.784 26.0614 107.871 27.5975C110.958 29.1337 113.567 31.255 115.698 33.9616C117.83 36.595 119.447 39.777 120.549 43.5077C121.651 47.1652 122.203 51.1153 122.203 55.358Z" fill="#161712"/>
<path d="M155.863 48.5551H167.218C167.438 46.7263 167.328 45.0073 166.887 43.398C166.519 41.7155 165.858 40.2525 164.903 39.009C164.021 37.7654 162.881 36.7779 161.485 36.0464C160.089 35.3149 158.545 34.9491 156.855 34.9491C155.018 34.9491 153.254 35.3515 151.563 36.1561C149.873 36.8876 148.366 38.058 147.043 39.6673C145.794 41.2035 144.765 43.1785 143.957 45.5925C143.222 47.9333 142.854 50.713 142.854 53.9316C142.854 60.3688 144.361 65.4528 147.374 69.1834C150.387 72.8409 154.319 74.6697 159.17 74.6697C161.742 74.6697 164.204 74.3771 166.556 73.7919C168.982 73.1336 171.774 72.0729 174.935 70.6099L178.462 79.7171C174.641 81.5458 171.003 82.826 167.548 83.5575C164.168 84.289 160.897 84.6547 157.737 84.6547C153.033 84.6547 148.917 83.8135 145.39 82.131C141.862 80.4486 138.922 78.2175 136.57 75.4378C134.218 72.5849 132.455 69.3297 131.279 65.6722C130.103 62.0147 129.515 58.2109 129.515 54.2608C129.515 49.7986 130.213 45.7754 131.609 42.191C133.006 38.6066 134.953 35.5709 137.452 33.0838C140.025 30.5235 143.001 28.5851 146.382 27.2684C149.836 25.9516 153.621 25.2933 157.737 25.2933C161.706 25.2933 165.27 26.1345 168.43 27.817C171.664 29.4263 174.236 31.6574 176.147 34.5102C178.132 37.3631 179.344 40.728 179.785 44.605C180.226 48.4088 179.712 52.5052 178.242 56.8942H146.933C147.742 54.5534 148.881 52.5783 150.351 50.969C151.894 49.3597 153.731 48.5551 155.863 48.5551V48.5551Z" fill="#161712"/>
<path d="M214.472 48.5551H225.827C226.047 46.7263 225.937 45.0073 225.496 43.398C225.129 41.7155 224.467 40.2525 223.512 39.009C222.63 37.7654 221.491 36.7779 220.094 36.0464C218.698 35.3149 217.154 34.9491 215.464 34.9491C213.627 34.9491 211.863 35.3515 210.172 36.1561C208.482 36.8876 206.975 38.058 205.653 39.6673C204.403 41.2035 203.374 43.1785 202.566 45.5925C201.831 47.9333 201.463 50.713 201.463 53.9316C201.463 60.3688 202.97 65.4528 205.983 69.1834C208.997 72.8409 212.929 74.6697 217.779 74.6697C220.351 74.6697 222.814 74.3771 225.165 73.7919C227.591 73.1336 230.383 72.0729 233.544 70.6099L237.072 79.7171C233.25 81.5458 229.612 82.826 226.158 83.5575C222.777 84.289 219.506 84.6547 216.346 84.6547C211.642 84.6547 207.527 83.8135 203.999 82.131C200.471 80.4486 197.531 78.2175 195.18 75.4378C192.828 72.5849 191.064 69.3297 189.888 65.6722C188.712 62.0147 188.124 58.2109 188.124 54.2608C188.124 49.7986 188.822 45.7754 190.219 42.191C191.615 38.6066 193.563 35.5709 196.061 33.0838C198.634 30.5235 201.61 28.5851 204.991 27.2684C208.445 25.9516 212.23 25.2933 216.346 25.2933C220.315 25.2933 223.879 26.1345 227.039 27.817C230.273 29.4263 232.846 31.6574 234.756 34.5102C236.741 37.3631 237.953 40.728 238.394 44.605C238.835 48.4088 238.321 52.5052 236.851 56.8942H205.542C206.351 54.5534 207.49 52.5783 208.96 50.969C210.503 49.3597 212.341 48.5551 214.472 48.5551V48.5551Z" fill="#161712"/>
<path d="M302.736 26.61L284.326 46.3606L306.154 83.338H291.161L278.152 58.4304L276.388 54.59L268.561 63.4777C267.826 60.2591 267.753 57.0771 268.341 53.9316C268.929 50.713 270.105 47.787 271.869 45.1536C272.456 44.2026 273.081 43.3248 273.743 42.5202C274.404 41.6424 275.102 40.7645 275.837 39.8867L287.082 26.61H302.736ZM263.159 0.166191V83.338H249.82V0.166191H263.159Z" fill="#161712"/>
<path d="M337.289 48.5551H348.644C348.864 46.7263 348.754 45.0073 348.313 43.398C347.945 41.7155 347.284 40.2525 346.328 39.009C345.447 37.7654 344.307 36.7779 342.911 36.0464C341.515 35.3149 339.971 34.9491 338.281 34.9491C336.443 34.9491 334.68 35.3515 332.989 36.1561C331.299 36.8876 329.792 38.058 328.469 39.6673C327.22 41.2035 326.191 43.1785 325.382 45.5925C324.647 47.9333 324.28 50.713 324.28 53.9316C324.28 60.3688 325.787 65.4528 328.8 69.1834C331.813 72.8409 335.745 74.6697 340.596 74.6697C343.168 74.6697 345.63 74.3771 347.982 73.7919C350.407 73.1336 353.2 72.0729 356.361 70.6099L359.888 79.7171C356.067 81.5458 352.429 82.826 348.974 83.5575C345.594 84.289 342.323 84.6547 339.163 84.6547C334.459 84.6547 330.343 83.8135 326.816 82.131C323.288 80.4486 320.348 78.2175 317.996 75.4378C315.644 72.5849 313.88 69.3297 312.705 65.6722C311.529 62.0147 310.941 58.2109 310.941 54.2608C310.941 49.7986 311.639 45.7754 313.035 42.191C314.432 38.6066 316.379 35.5709 318.878 33.0838C321.45 30.5235 324.427 28.5851 327.808 27.2684C331.262 25.9516 335.047 25.2933 339.163 25.2933C343.131 25.2933 346.696 26.1345 349.856 27.817C353.09 29.4263 355.662 31.6574 357.573 34.5102C359.558 37.3631 360.77 40.728 361.211 44.605C361.652 48.4088 361.138 52.5052 359.668 56.8942H328.359C329.167 54.5534 330.307 52.5783 331.776 50.969C333.32 49.3597 335.157 48.5551 337.289 48.5551V48.5551Z" fill="#161712"/>
<path d="M367.676 79.8268L370.873 70.7196C374.107 72.1094 377.083 73.097 379.803 73.6822C382.522 74.1943 385.058 74.4503 387.409 74.4503C390.349 74.4503 392.517 73.7919 393.914 72.4752C395.31 71.1585 396.008 69.6223 396.008 67.8667C396.008 66.1111 395.347 64.6481 394.024 63.4777C392.701 62.3073 391.047 61.2467 389.063 60.2957C387.079 59.2716 384.947 58.2841 382.669 57.3331C380.391 56.309 378.259 55.1386 376.275 53.8219C374.291 52.432 372.637 50.7496 371.314 48.7745C369.991 46.7995 369.33 44.3124 369.33 41.3132C369.33 39.5576 369.697 37.7654 370.432 35.9367C371.167 34.0348 372.306 32.3523 373.85 30.8893C375.393 29.3531 377.377 28.1096 379.803 27.1586C382.228 26.1345 385.168 25.6225 388.622 25.6225C390.974 25.6225 393.436 25.8054 396.008 26.1711C398.581 26.5369 401.557 27.3049 404.938 28.4753L401.741 37.3631C399.095 36.5584 396.854 36.0098 395.016 35.7172C393.179 35.4246 391.378 35.2783 389.614 35.2783C387.336 35.2783 385.499 35.7903 384.102 36.8145C382.779 37.7654 382.118 39.1553 382.118 40.984C382.118 42.6665 382.779 44.0929 384.102 45.2633C385.425 46.4337 387.079 47.531 389.063 48.5551C391.047 49.506 393.179 50.4936 395.457 51.5177C397.735 52.5418 399.867 53.7853 401.851 55.2483C403.836 56.6382 405.489 58.3572 406.812 60.4054C408.135 62.3805 408.796 64.831 408.796 67.757C408.796 70.171 408.245 72.402 407.143 74.4503C406.114 76.4985 404.681 78.2907 402.843 79.8268C401.079 81.2898 399.022 82.4236 396.67 83.2283C394.391 84.0329 392.003 84.4353 389.504 84.4353C386.638 84.4353 383.441 84.1793 379.913 83.6672C376.459 83.1552 372.38 81.875 367.676 79.8268V79.8268Z" fill="#161712"/>
<path d="M55.9933 19.7482L52.9335 27.2238C49.8325 26.3322 47.0415 25.7149 44.5608 25.3719C42.08 25.029 39.7716 24.8575 37.6354 24.8575C34.1899 24.8575 31.5026 25.7492 29.5731 27.5325C27.7125 29.2471 26.7821 31.4075 26.7821 34.0138C26.7821 36.4829 27.6436 38.609 29.3663 40.3922C29.7099 40.7478 30.072 41.0993 30.4512 41.4467C28.9268 39.731 28.1641 37.7119 28.1641 35.3893C28.1641 32.783 29.0943 30.6226 30.9548 28.908C32.8843 27.1247 35.5719 26.233 39.0174 26.233C41.1536 26.233 43.462 26.4045 45.9428 26.7475C48.4235 27.0904 51.2143 27.7077 54.3152 28.5993L57.7262 20.2659C57.1352 20.0833 56.5602 19.9127 55.9933 19.7482V19.7482ZM56.1547 58.519C57.3477 59.7985 58.4108 61.1972 59.342 62.7173C61.0647 65.4607 61.9262 68.7871 61.9262 72.6965C61.9262 75.7143 61.306 78.4922 60.0656 81.0299C58.8942 83.499 57.2056 85.6251 55.0005 87.4084C52.7954 89.1916 50.1081 90.5977 46.9383 91.6265C43.7684 92.5867 40.2196 93.0668 36.2917 93.0668C33.3286 93.0668 29.8832 92.6553 25.9553 91.8323C22.5328 91.1749 18.9792 90.0484 15.2951 88.4537L15.0367 89.0926C19.3091 91.0816 23.4092 92.4534 27.3371 93.2078C31.2649 94.0309 34.7106 94.4423 37.6737 94.4423C41.6016 94.4423 45.1504 93.9623 48.3202 93.002C51.4901 91.9732 54.1774 90.5671 56.3825 88.7839C58.5876 87.0006 60.2759 84.8746 61.4473 82.4054C62.6877 79.8677 63.3079 77.0898 63.3079 74.072C63.3079 70.1626 62.4467 66.8362 60.724 64.0928C59.4471 62.0086 57.9236 60.151 56.1547 58.519V58.519Z" fill="#161712"/>
<path d="M46.968 13.8041L44.2714 20.3913C41.1705 19.4997 38.3797 18.8824 35.899 18.5394C33.4182 18.1965 31.1098 18.0252 28.9736 18.0252C25.5281 18.0252 22.8405 18.9167 20.911 20.7C19.0505 22.4146 18.1203 24.575 18.1203 27.1813C18.1203 29.6504 18.9818 31.7767 20.7046 33.56C21.3117 34.1885 21.9757 34.804 22.6942 35.407C21.4892 33.8217 20.8843 31.9973 20.8843 29.9323C20.8843 27.326 21.8145 25.1657 23.675 23.451C25.6045 21.6677 28.2921 20.7763 31.7376 20.7763C33.8738 20.7763 36.1822 20.9475 38.663 21.2905C41.1437 21.6334 43.9345 22.2507 47.0354 23.1423L50.4464 14.8091C49.2341 14.4347 48.0788 14.1028 46.968 13.8041ZM48.1575 52.4256C49.0843 53.4997 49.9253 54.6526 50.6802 55.8848C52.4029 58.6282 53.2641 61.9548 53.2641 65.8643C53.2641 68.8821 52.6439 71.6597 51.4036 74.1975C50.2321 76.6666 48.5438 78.7929 46.3387 80.5761C44.1336 82.3594 41.4463 83.7653 38.2765 84.794C35.1066 85.7543 31.5578 86.2343 27.6299 86.2343C24.6668 86.2343 21.2211 85.8229 17.2933 84.9998C14.3874 84.4417 11.3872 83.5447 8.29275 82.3109L7.75696 83.6356C12.0294 85.6246 16.1294 86.9964 20.0573 87.7509C23.9851 88.5739 27.4308 88.9853 30.3939 88.9853C34.3218 88.9853 37.8706 88.5053 41.0405 87.5451C44.2103 86.5163 46.8976 85.1104 49.1027 83.3272C51.3079 81.5439 52.9961 79.4176 54.1676 76.9485C55.4079 74.4108 56.0281 71.6331 56.0281 68.6153C56.0281 64.7059 55.1669 61.3793 53.4442 58.6358C51.998 56.2753 50.2349 54.2061 48.1575 52.4256V52.4256Z" fill="#161712"/>
<path d="M23.9917 15.2741C20.5462 15.2741 17.8587 16.1658 15.9292 17.949C14.0687 19.6637 13.1384 21.8241 13.1384 24.4304C13.1384 26.8995 13.9998 29.0257 15.7225 30.809C17.4453 32.5922 19.6159 34.2726 22.2345 35.8501C24.853 37.359 27.6783 38.9022 30.7104 40.4797C33.7424 42.0572 36.5677 43.8747 39.1862 45.9323C41.8048 47.9213 43.9755 50.3218 45.6982 53.1339C47.4209 55.8774 48.2823 59.2038 48.2823 63.1132C48.2823 66.131 47.6621 68.9088 46.4218 71.4465C45.2503 73.9156 43.562 76.0418 41.3569 77.8251C39.1518 79.6083 36.4643 81.0143 33.2945 82.0431C30.1246 83.0033 26.5758 83.4834 22.6479 83.4834C19.6848 83.4834 16.2393 83.0719 12.3115 82.2489C8.38363 81.4944 4.28351 80.1227 0.0111084 78.1337L3.42214 69.6976C6.93653 71.275 10.2786 72.4067 13.4485 73.0926C16.6872 73.7099 19.5815 74.0185 22.1311 74.0185C24.1984 74.0185 26.059 73.7442 27.7128 73.1955C29.4355 72.6468 30.8826 71.8923 32.0541 70.9321C33.2945 69.9033 34.2247 68.7373 34.8449 67.4342C35.534 66.131 35.8786 64.725 35.8786 63.2161C35.8786 60.5412 35.0172 58.2779 33.2945 56.4261C31.5717 54.5742 29.4011 52.8938 26.7825 51.3849C24.2329 49.8074 21.442 48.2985 18.41 46.8582C15.378 45.3493 12.5527 43.6347 9.9341 41.7142C7.38444 39.7252 5.24824 37.4276 3.5255 34.8213C1.80276 32.215 0.94139 29.0257 0.94139 25.2535C0.94139 22.1671 1.49267 19.4236 2.59522 17.0231C3.76669 14.6226 5.35161 12.6335 7.34999 11.0561C9.34836 9.40997 11.6913 8.17541 14.3788 7.35237C17.0662 6.46075 19.9605 6.01494 23.0614 6.01494C24.5774 6.01494 26.059 6.08353 27.5061 6.2207C29.0221 6.28928 30.5725 6.46075 32.1575 6.7351C33.7424 6.94086 35.3962 7.28379 37.119 7.7639C38.8417 8.17541 40.7023 8.68981 42.7006 9.30709L39.2896 17.6404C36.1887 16.7487 33.3978 16.1315 30.9171 15.7885C28.4363 15.4456 26.1279 15.2741 23.9917 15.2741V15.2741Z" fill="#161712"/>
</svg>
