<svg width="363" height="347" viewBox="0 0 363 347" fill="none" xmlns="http://www.w3.org/2000/svg">
<g clip-path="url(#clip0)">
<path fill-rule="evenodd" clip-rule="evenodd" d="M56.348 42.836C52.6473 42.836 49.2907 44.3095 46.833 46.702L0.715782 -0.568237L0 0.130087L46.142 47.4256C44.0042 49.834 42.7059 53.0045 42.7059 56.4781C42.7059 63.2999 47.713 68.9522 54.2525 69.9603L42.0388 154.346C34.5385 154.386 28.4706 160.478 28.4706 167.988C28.4706 175.522 34.5784 181.63 42.1127 181.63C45.5772 181.63 48.74 180.339 51.1461 178.211L97.1518 225.367C95.014 227.775 93.7157 230.946 93.7157 234.419C93.7157 241.954 99.8235 248.061 107.358 248.061C114.892 248.061 121 241.954 121 234.419C121 226.885 114.892 220.777 107.358 220.777C103.657 220.777 100.301 222.251 97.8428 224.643L51.8707 177.522C54.2738 175.062 55.7549 171.698 55.7549 167.988C55.7549 160.767 50.1444 154.856 43.0447 154.377L55.2462 70.0764C55.6096 70.1055 55.9771 70.1203 56.348 70.1203C59.8125 70.1203 62.9753 68.8289 65.3814 66.7012L111.387 113.857C109.249 116.265 107.951 119.436 107.951 122.91C107.951 130.444 114.059 136.552 121.593 136.552C124.938 136.552 128.002 135.348 130.375 133.35L211.17 160.281C211.482 167.539 217.465 173.326 224.799 173.326C229.298 173.326 233.289 171.148 235.774 167.789L294.061 193.57C293.384 195.189 293.01 196.966 293.01 198.831C293.01 206.365 299.118 212.473 306.652 212.473C310.175 212.473 313.387 211.137 315.808 208.945L342.35 257.114C338.376 259.498 335.716 263.849 335.716 268.821C335.716 276.356 341.823 282.463 349.358 282.463C356.892 282.463 363 276.356 363 268.821C363 261.287 356.892 255.179 349.358 255.179C347.153 255.179 345.069 255.702 343.226 256.632L316.55 208.219C318.87 205.774 320.294 202.469 320.294 198.831C320.294 191.297 314.186 185.189 306.652 185.189C301.338 185.189 296.733 188.228 294.481 192.662L236.348 166.949C237.674 164.846 238.441 162.355 238.441 159.684C238.441 152.554 232.971 146.702 225.999 146.094L215.788 56.4637C219.776 55.2297 222.982 52.216 224.477 48.3507L273.185 73.2225C271.48 75.4994 270.471 78.3268 270.471 81.3899C270.471 88.9242 276.578 95.0321 284.113 95.0321C287.577 95.0321 290.74 93.7406 293.146 91.613L339.152 138.769C337.014 141.177 335.716 144.348 335.716 147.821C335.716 155.356 341.823 161.463 349.358 161.463C356.892 161.463 363 155.356 363 147.821C363 140.287 356.892 134.179 349.358 134.179C345.657 134.179 342.301 135.653 339.843 138.045L293.871 90.9236C296.274 88.4643 297.755 85.1 297.755 81.3899C297.755 73.8555 291.647 67.7477 284.113 67.7477C280.009 67.7477 276.328 69.5599 273.827 72.4277L224.806 47.3959C225.187 46.1406 225.392 44.8088 225.392 43.4291C225.392 35.8948 219.284 29.7869 211.75 29.7869C204.601 29.7869 198.737 35.2858 198.155 42.2846L69.8705 54.663C68.9829 47.9867 63.267 42.836 56.348 42.836ZM214.812 56.7264L224.987 146.043C224.924 146.042 224.862 146.042 224.799 146.042C217.418 146.042 211.406 151.903 211.164 159.226L131.219 132.577C133.7 130.107 135.235 126.687 135.235 122.91C135.235 115.375 129.127 109.267 121.593 109.267C117.892 109.267 114.536 110.741 112.078 113.133L66.106 66.0118C68.5091 63.5525 69.9902 60.1883 69.9902 56.4781C69.9902 56.2029 69.982 55.9296 69.966 55.6584L198.109 43.2938C198.108 43.3388 198.108 43.3839 198.108 43.4291C198.108 50.9635 204.216 57.0713 211.75 57.0713C212.803 57.0713 213.827 56.952 214.812 56.7264ZM234.882 242.723C234.882 249.851 229.416 255.702 222.446 256.313L242.975 319.951C244.345 319.488 245.812 319.238 247.338 319.238C254.873 319.238 260.98 325.346 260.98 332.88C260.98 340.414 254.873 346.522 247.338 346.522C239.804 346.522 233.696 340.414 233.696 332.88C233.696 327.225 237.137 322.374 242.038 320.306L221.412 256.364C221.355 256.365 221.298 256.365 221.24 256.365C213.706 256.365 207.598 250.258 207.598 242.723C207.598 235.189 213.706 229.081 221.24 229.081C221.533 229.081 221.823 229.09 222.111 229.108L225.392 173.326L226.39 173.385L223.107 229.208C229.758 230.118 234.882 235.822 234.882 242.723Z" fill="#AAD400" fill-opacity="0.5"/>
</g>
<defs>
<clipPath id="clip0">
<rect width="363" height="347" fill="white"/>
</clipPath>
</defs>
</svg>
